G75*
G70*
%OFA0B0*%
%FSLAX24Y24*%
%IPPOS*%
%LPD*%
%AMOC8*
5,1,8,0,0,1.08239X$1,22.5*
%
%ADD10C,0.0000*%
%ADD11C,0.1024*%
%ADD12C,0.0631*%
%ADD13C,0.1615*%
%ADD14C,0.1040*%
%ADD15C,0.0670*%
%ADD16C,0.0512*%
%ADD17C,0.0820*%
%ADD18C,0.0700*%
%ADD19C,0.0640*%
%ADD20C,0.0050*%
%ADD21C,0.1290*%
%ADD22C,0.0555*%
%ADD23OC8,0.0640*%
D10*
X002370Y004500D02*
X002372Y004535D01*
X002378Y004570D01*
X002388Y004604D01*
X002401Y004637D01*
X002418Y004668D01*
X002439Y004696D01*
X002462Y004723D01*
X002489Y004746D01*
X002517Y004767D01*
X002548Y004784D01*
X002581Y004797D01*
X002615Y004807D01*
X002650Y004813D01*
X002685Y004815D01*
X002720Y004813D01*
X002755Y004807D01*
X002789Y004797D01*
X002822Y004784D01*
X002853Y004767D01*
X002881Y004746D01*
X002908Y004723D01*
X002931Y004696D01*
X002952Y004668D01*
X002969Y004637D01*
X002982Y004604D01*
X002992Y004570D01*
X002998Y004535D01*
X003000Y004500D01*
X002998Y004465D01*
X002992Y004430D01*
X002982Y004396D01*
X002969Y004363D01*
X002952Y004332D01*
X002931Y004304D01*
X002908Y004277D01*
X002881Y004254D01*
X002853Y004233D01*
X002822Y004216D01*
X002789Y004203D01*
X002755Y004193D01*
X002720Y004187D01*
X002685Y004185D01*
X002650Y004187D01*
X002615Y004193D01*
X002581Y004203D01*
X002548Y004216D01*
X002517Y004233D01*
X002489Y004254D01*
X002462Y004277D01*
X002439Y004304D01*
X002418Y004332D01*
X002401Y004363D01*
X002388Y004396D01*
X002378Y004430D01*
X002372Y004465D01*
X002370Y004500D01*
X002372Y004535D01*
X002378Y004570D01*
X002388Y004604D01*
X002401Y004637D01*
X002418Y004668D01*
X002439Y004696D01*
X002462Y004723D01*
X002489Y004746D01*
X002517Y004767D01*
X002548Y004784D01*
X002581Y004797D01*
X002615Y004807D01*
X002650Y004813D01*
X002685Y004815D01*
X002720Y004813D01*
X002755Y004807D01*
X002789Y004797D01*
X002822Y004784D01*
X002853Y004767D01*
X002881Y004746D01*
X002908Y004723D01*
X002931Y004696D01*
X002952Y004668D01*
X002969Y004637D01*
X002982Y004604D01*
X002992Y004570D01*
X002998Y004535D01*
X003000Y004500D01*
X002998Y004465D01*
X002992Y004430D01*
X002982Y004396D01*
X002969Y004363D01*
X002952Y004332D01*
X002931Y004304D01*
X002908Y004277D01*
X002881Y004254D01*
X002853Y004233D01*
X002822Y004216D01*
X002789Y004203D01*
X002755Y004193D01*
X002720Y004187D01*
X002685Y004185D01*
X002650Y004187D01*
X002615Y004193D01*
X002581Y004203D01*
X002548Y004216D01*
X002517Y004233D01*
X002489Y004254D01*
X002462Y004277D01*
X002439Y004304D01*
X002418Y004332D01*
X002401Y004363D01*
X002388Y004396D01*
X002378Y004430D01*
X002372Y004465D01*
X002370Y004500D01*
X004370Y007500D02*
X004372Y007535D01*
X004378Y007570D01*
X004388Y007604D01*
X004401Y007637D01*
X004418Y007668D01*
X004439Y007696D01*
X004462Y007723D01*
X004489Y007746D01*
X004517Y007767D01*
X004548Y007784D01*
X004581Y007797D01*
X004615Y007807D01*
X004650Y007813D01*
X004685Y007815D01*
X004720Y007813D01*
X004755Y007807D01*
X004789Y007797D01*
X004822Y007784D01*
X004853Y007767D01*
X004881Y007746D01*
X004908Y007723D01*
X004931Y007696D01*
X004952Y007668D01*
X004969Y007637D01*
X004982Y007604D01*
X004992Y007570D01*
X004998Y007535D01*
X005000Y007500D01*
X004998Y007465D01*
X004992Y007430D01*
X004982Y007396D01*
X004969Y007363D01*
X004952Y007332D01*
X004931Y007304D01*
X004908Y007277D01*
X004881Y007254D01*
X004853Y007233D01*
X004822Y007216D01*
X004789Y007203D01*
X004755Y007193D01*
X004720Y007187D01*
X004685Y007185D01*
X004650Y007187D01*
X004615Y007193D01*
X004581Y007203D01*
X004548Y007216D01*
X004517Y007233D01*
X004489Y007254D01*
X004462Y007277D01*
X004439Y007304D01*
X004418Y007332D01*
X004401Y007363D01*
X004388Y007396D01*
X004378Y007430D01*
X004372Y007465D01*
X004370Y007500D01*
X004449Y007500D02*
X004451Y007530D01*
X004457Y007560D01*
X004466Y007589D01*
X004479Y007616D01*
X004496Y007641D01*
X004515Y007664D01*
X004538Y007685D01*
X004563Y007702D01*
X004589Y007716D01*
X004618Y007726D01*
X004647Y007733D01*
X004677Y007736D01*
X004708Y007735D01*
X004738Y007730D01*
X004767Y007721D01*
X004794Y007709D01*
X004820Y007694D01*
X004844Y007675D01*
X004865Y007653D01*
X004883Y007629D01*
X004898Y007602D01*
X004909Y007574D01*
X004917Y007545D01*
X004921Y007515D01*
X004921Y007485D01*
X004917Y007455D01*
X004909Y007426D01*
X004898Y007398D01*
X004883Y007371D01*
X004865Y007347D01*
X004844Y007325D01*
X004820Y007306D01*
X004794Y007291D01*
X004767Y007279D01*
X004738Y007270D01*
X004708Y007265D01*
X004677Y007264D01*
X004647Y007267D01*
X004618Y007274D01*
X004589Y007284D01*
X004563Y007298D01*
X004538Y007315D01*
X004515Y007336D01*
X004496Y007359D01*
X004479Y007384D01*
X004466Y007411D01*
X004457Y007440D01*
X004451Y007470D01*
X004449Y007500D01*
X002370Y013300D02*
X002372Y013335D01*
X002378Y013370D01*
X002388Y013404D01*
X002401Y013437D01*
X002418Y013468D01*
X002439Y013496D01*
X002462Y013523D01*
X002489Y013546D01*
X002517Y013567D01*
X002548Y013584D01*
X002581Y013597D01*
X002615Y013607D01*
X002650Y013613D01*
X002685Y013615D01*
X002720Y013613D01*
X002755Y013607D01*
X002789Y013597D01*
X002822Y013584D01*
X002853Y013567D01*
X002881Y013546D01*
X002908Y013523D01*
X002931Y013496D01*
X002952Y013468D01*
X002969Y013437D01*
X002982Y013404D01*
X002992Y013370D01*
X002998Y013335D01*
X003000Y013300D01*
X002998Y013265D01*
X002992Y013230D01*
X002982Y013196D01*
X002969Y013163D01*
X002952Y013132D01*
X002931Y013104D01*
X002908Y013077D01*
X002881Y013054D01*
X002853Y013033D01*
X002822Y013016D01*
X002789Y013003D01*
X002755Y012993D01*
X002720Y012987D01*
X002685Y012985D01*
X002650Y012987D01*
X002615Y012993D01*
X002581Y013003D01*
X002548Y013016D01*
X002517Y013033D01*
X002489Y013054D01*
X002462Y013077D01*
X002439Y013104D01*
X002418Y013132D01*
X002401Y013163D01*
X002388Y013196D01*
X002378Y013230D01*
X002372Y013265D01*
X002370Y013300D01*
X002372Y013335D01*
X002378Y013370D01*
X002388Y013404D01*
X002401Y013437D01*
X002418Y013468D01*
X002439Y013496D01*
X002462Y013523D01*
X002489Y013546D01*
X002517Y013567D01*
X002548Y013584D01*
X002581Y013597D01*
X002615Y013607D01*
X002650Y013613D01*
X002685Y013615D01*
X002720Y013613D01*
X002755Y013607D01*
X002789Y013597D01*
X002822Y013584D01*
X002853Y013567D01*
X002881Y013546D01*
X002908Y013523D01*
X002931Y013496D01*
X002952Y013468D01*
X002969Y013437D01*
X002982Y013404D01*
X002992Y013370D01*
X002998Y013335D01*
X003000Y013300D01*
X002998Y013265D01*
X002992Y013230D01*
X002982Y013196D01*
X002969Y013163D01*
X002952Y013132D01*
X002931Y013104D01*
X002908Y013077D01*
X002881Y013054D01*
X002853Y013033D01*
X002822Y013016D01*
X002789Y013003D01*
X002755Y012993D01*
X002720Y012987D01*
X002685Y012985D01*
X002650Y012987D01*
X002615Y012993D01*
X002581Y013003D01*
X002548Y013016D01*
X002517Y013033D01*
X002489Y013054D01*
X002462Y013077D01*
X002439Y013104D01*
X002418Y013132D01*
X002401Y013163D01*
X002388Y013196D01*
X002378Y013230D01*
X002372Y013265D01*
X002370Y013300D01*
X004370Y016300D02*
X004372Y016335D01*
X004378Y016370D01*
X004388Y016404D01*
X004401Y016437D01*
X004418Y016468D01*
X004439Y016496D01*
X004462Y016523D01*
X004489Y016546D01*
X004517Y016567D01*
X004548Y016584D01*
X004581Y016597D01*
X004615Y016607D01*
X004650Y016613D01*
X004685Y016615D01*
X004720Y016613D01*
X004755Y016607D01*
X004789Y016597D01*
X004822Y016584D01*
X004853Y016567D01*
X004881Y016546D01*
X004908Y016523D01*
X004931Y016496D01*
X004952Y016468D01*
X004969Y016437D01*
X004982Y016404D01*
X004992Y016370D01*
X004998Y016335D01*
X005000Y016300D01*
X004998Y016265D01*
X004992Y016230D01*
X004982Y016196D01*
X004969Y016163D01*
X004952Y016132D01*
X004931Y016104D01*
X004908Y016077D01*
X004881Y016054D01*
X004853Y016033D01*
X004822Y016016D01*
X004789Y016003D01*
X004755Y015993D01*
X004720Y015987D01*
X004685Y015985D01*
X004650Y015987D01*
X004615Y015993D01*
X004581Y016003D01*
X004548Y016016D01*
X004517Y016033D01*
X004489Y016054D01*
X004462Y016077D01*
X004439Y016104D01*
X004418Y016132D01*
X004401Y016163D01*
X004388Y016196D01*
X004378Y016230D01*
X004372Y016265D01*
X004370Y016300D01*
X004372Y016335D01*
X004378Y016370D01*
X004388Y016404D01*
X004401Y016437D01*
X004418Y016468D01*
X004439Y016496D01*
X004462Y016523D01*
X004489Y016546D01*
X004517Y016567D01*
X004548Y016584D01*
X004581Y016597D01*
X004615Y016607D01*
X004650Y016613D01*
X004685Y016615D01*
X004720Y016613D01*
X004755Y016607D01*
X004789Y016597D01*
X004822Y016584D01*
X004853Y016567D01*
X004881Y016546D01*
X004908Y016523D01*
X004931Y016496D01*
X004952Y016468D01*
X004969Y016437D01*
X004982Y016404D01*
X004992Y016370D01*
X004998Y016335D01*
X005000Y016300D01*
X004998Y016265D01*
X004992Y016230D01*
X004982Y016196D01*
X004969Y016163D01*
X004952Y016132D01*
X004931Y016104D01*
X004908Y016077D01*
X004881Y016054D01*
X004853Y016033D01*
X004822Y016016D01*
X004789Y016003D01*
X004755Y015993D01*
X004720Y015987D01*
X004685Y015985D01*
X004650Y015987D01*
X004615Y015993D01*
X004581Y016003D01*
X004548Y016016D01*
X004517Y016033D01*
X004489Y016054D01*
X004462Y016077D01*
X004439Y016104D01*
X004418Y016132D01*
X004401Y016163D01*
X004388Y016196D01*
X004378Y016230D01*
X004372Y016265D01*
X004370Y016300D01*
X003075Y020102D02*
X003077Y020158D01*
X003083Y020213D01*
X003093Y020267D01*
X003106Y020321D01*
X003124Y020374D01*
X003145Y020425D01*
X003169Y020475D01*
X003197Y020523D01*
X003229Y020569D01*
X003263Y020613D01*
X003301Y020654D01*
X003341Y020692D01*
X003384Y020727D01*
X003429Y020759D01*
X003477Y020788D01*
X003526Y020814D01*
X003577Y020836D01*
X003629Y020854D01*
X003683Y020868D01*
X003738Y020879D01*
X003793Y020886D01*
X003848Y020889D01*
X003904Y020888D01*
X003959Y020883D01*
X004014Y020874D01*
X004068Y020862D01*
X004121Y020845D01*
X004173Y020825D01*
X004223Y020801D01*
X004271Y020774D01*
X004318Y020744D01*
X004362Y020710D01*
X004404Y020673D01*
X004442Y020633D01*
X004479Y020591D01*
X004512Y020546D01*
X004541Y020500D01*
X004568Y020451D01*
X004590Y020400D01*
X004610Y020348D01*
X004625Y020294D01*
X004637Y020240D01*
X004645Y020185D01*
X004649Y020130D01*
X004649Y020074D01*
X004645Y020019D01*
X004637Y019964D01*
X004625Y019910D01*
X004610Y019856D01*
X004590Y019804D01*
X004568Y019753D01*
X004541Y019704D01*
X004512Y019658D01*
X004479Y019613D01*
X004442Y019571D01*
X004404Y019531D01*
X004362Y019494D01*
X004318Y019460D01*
X004271Y019430D01*
X004223Y019403D01*
X004173Y019379D01*
X004121Y019359D01*
X004068Y019342D01*
X004014Y019330D01*
X003959Y019321D01*
X003904Y019316D01*
X003848Y019315D01*
X003793Y019318D01*
X003738Y019325D01*
X003683Y019336D01*
X003629Y019350D01*
X003577Y019368D01*
X003526Y019390D01*
X003477Y019416D01*
X003429Y019445D01*
X003384Y019477D01*
X003341Y019512D01*
X003301Y019550D01*
X003263Y019591D01*
X003229Y019635D01*
X003197Y019681D01*
X003169Y019729D01*
X003145Y019779D01*
X003124Y019830D01*
X003106Y019883D01*
X003093Y019937D01*
X003083Y019991D01*
X003077Y020046D01*
X003075Y020102D01*
X006560Y020500D02*
X006562Y020550D01*
X006568Y020599D01*
X006578Y020648D01*
X006591Y020695D01*
X006609Y020742D01*
X006630Y020787D01*
X006654Y020830D01*
X006682Y020871D01*
X006713Y020910D01*
X006747Y020946D01*
X006784Y020980D01*
X006824Y021010D01*
X006865Y021037D01*
X006909Y021061D01*
X006954Y021081D01*
X007001Y021097D01*
X007049Y021110D01*
X007098Y021119D01*
X007148Y021124D01*
X007197Y021125D01*
X007247Y021122D01*
X007296Y021115D01*
X007345Y021104D01*
X007392Y021090D01*
X007438Y021071D01*
X007483Y021049D01*
X007526Y021024D01*
X007566Y020995D01*
X007604Y020963D01*
X007640Y020929D01*
X007673Y020891D01*
X007702Y020851D01*
X007728Y020809D01*
X007751Y020765D01*
X007770Y020719D01*
X007786Y020672D01*
X007798Y020623D01*
X007806Y020574D01*
X007810Y020525D01*
X007810Y020475D01*
X007806Y020426D01*
X007798Y020377D01*
X007786Y020328D01*
X007770Y020281D01*
X007751Y020235D01*
X007728Y020191D01*
X007702Y020149D01*
X007673Y020109D01*
X007640Y020071D01*
X007604Y020037D01*
X007566Y020005D01*
X007526Y019976D01*
X007483Y019951D01*
X007438Y019929D01*
X007392Y019910D01*
X007345Y019896D01*
X007296Y019885D01*
X007247Y019878D01*
X007197Y019875D01*
X007148Y019876D01*
X007098Y019881D01*
X007049Y019890D01*
X007001Y019903D01*
X006954Y019919D01*
X006909Y019939D01*
X006865Y019963D01*
X006824Y019990D01*
X006784Y020020D01*
X006747Y020054D01*
X006713Y020090D01*
X006682Y020129D01*
X006654Y020170D01*
X006630Y020213D01*
X006609Y020258D01*
X006591Y020305D01*
X006578Y020352D01*
X006568Y020401D01*
X006562Y020450D01*
X006560Y020500D01*
X011700Y017020D02*
X011702Y017054D01*
X011708Y017088D01*
X011718Y017121D01*
X011731Y017152D01*
X011749Y017182D01*
X011769Y017210D01*
X011793Y017235D01*
X011819Y017257D01*
X011847Y017275D01*
X011878Y017291D01*
X011910Y017303D01*
X011944Y017311D01*
X011978Y017315D01*
X012012Y017315D01*
X012046Y017311D01*
X012080Y017303D01*
X012112Y017291D01*
X012142Y017275D01*
X012171Y017257D01*
X012197Y017235D01*
X012221Y017210D01*
X012241Y017182D01*
X012259Y017152D01*
X012272Y017121D01*
X012282Y017088D01*
X012288Y017054D01*
X012290Y017020D01*
X012288Y016986D01*
X012282Y016952D01*
X012272Y016919D01*
X012259Y016888D01*
X012241Y016858D01*
X012221Y016830D01*
X012197Y016805D01*
X012171Y016783D01*
X012143Y016765D01*
X012112Y016749D01*
X012080Y016737D01*
X012046Y016729D01*
X012012Y016725D01*
X011978Y016725D01*
X011944Y016729D01*
X011910Y016737D01*
X011878Y016749D01*
X011847Y016765D01*
X011819Y016783D01*
X011793Y016805D01*
X011769Y016830D01*
X011749Y016858D01*
X011731Y016888D01*
X011718Y016919D01*
X011708Y016952D01*
X011702Y016986D01*
X011700Y017020D01*
X011503Y014480D02*
X011505Y014524D01*
X011511Y014568D01*
X011521Y014611D01*
X011534Y014653D01*
X011552Y014693D01*
X011573Y014732D01*
X011597Y014769D01*
X011624Y014804D01*
X011655Y014836D01*
X011688Y014865D01*
X011724Y014891D01*
X011762Y014913D01*
X011802Y014932D01*
X011843Y014948D01*
X011886Y014960D01*
X011929Y014968D01*
X011973Y014972D01*
X012017Y014972D01*
X012061Y014968D01*
X012104Y014960D01*
X012147Y014948D01*
X012188Y014932D01*
X012228Y014913D01*
X012266Y014891D01*
X012302Y014865D01*
X012335Y014836D01*
X012366Y014804D01*
X012393Y014769D01*
X012417Y014732D01*
X012438Y014693D01*
X012456Y014653D01*
X012469Y014611D01*
X012479Y014568D01*
X012485Y014524D01*
X012487Y014480D01*
X012485Y014436D01*
X012479Y014392D01*
X012469Y014349D01*
X012456Y014307D01*
X012438Y014267D01*
X012417Y014228D01*
X012393Y014191D01*
X012366Y014156D01*
X012335Y014124D01*
X012302Y014095D01*
X012266Y014069D01*
X012228Y014047D01*
X012188Y014028D01*
X012147Y014012D01*
X012104Y014000D01*
X012061Y013992D01*
X012017Y013988D01*
X011973Y013988D01*
X011929Y013992D01*
X011886Y014000D01*
X011843Y014012D01*
X011802Y014028D01*
X011762Y014047D01*
X011724Y014069D01*
X011688Y014095D01*
X011655Y014124D01*
X011624Y014156D01*
X011597Y014191D01*
X011573Y014228D01*
X011552Y014267D01*
X011534Y014307D01*
X011521Y014349D01*
X011511Y014392D01*
X011505Y014436D01*
X011503Y014480D01*
X023783Y015000D02*
X023785Y015044D01*
X023791Y015088D01*
X023801Y015131D01*
X023814Y015173D01*
X023832Y015213D01*
X023853Y015252D01*
X023877Y015289D01*
X023904Y015324D01*
X023935Y015356D01*
X023968Y015385D01*
X024004Y015411D01*
X024042Y015433D01*
X024082Y015452D01*
X024123Y015468D01*
X024166Y015480D01*
X024209Y015488D01*
X024253Y015492D01*
X024297Y015492D01*
X024341Y015488D01*
X024384Y015480D01*
X024427Y015468D01*
X024468Y015452D01*
X024508Y015433D01*
X024546Y015411D01*
X024582Y015385D01*
X024615Y015356D01*
X024646Y015324D01*
X024673Y015289D01*
X024697Y015252D01*
X024718Y015213D01*
X024736Y015173D01*
X024749Y015131D01*
X024759Y015088D01*
X024765Y015044D01*
X024767Y015000D01*
X024765Y014956D01*
X024759Y014912D01*
X024749Y014869D01*
X024736Y014827D01*
X024718Y014787D01*
X024697Y014748D01*
X024673Y014711D01*
X024646Y014676D01*
X024615Y014644D01*
X024582Y014615D01*
X024546Y014589D01*
X024508Y014567D01*
X024468Y014548D01*
X024427Y014532D01*
X024384Y014520D01*
X024341Y014512D01*
X024297Y014508D01*
X024253Y014508D01*
X024209Y014512D01*
X024166Y014520D01*
X024123Y014532D01*
X024082Y014548D01*
X024042Y014567D01*
X024004Y014589D01*
X023968Y014615D01*
X023935Y014644D01*
X023904Y014676D01*
X023877Y014711D01*
X023853Y014748D01*
X023832Y014787D01*
X023814Y014827D01*
X023801Y014869D01*
X023791Y014912D01*
X023785Y014956D01*
X023783Y015000D01*
X026560Y014500D02*
X026562Y014550D01*
X026568Y014599D01*
X026578Y014648D01*
X026591Y014695D01*
X026609Y014742D01*
X026630Y014787D01*
X026654Y014830D01*
X026682Y014871D01*
X026713Y014910D01*
X026747Y014946D01*
X026784Y014980D01*
X026824Y015010D01*
X026865Y015037D01*
X026909Y015061D01*
X026954Y015081D01*
X027001Y015097D01*
X027049Y015110D01*
X027098Y015119D01*
X027148Y015124D01*
X027197Y015125D01*
X027247Y015122D01*
X027296Y015115D01*
X027345Y015104D01*
X027392Y015090D01*
X027438Y015071D01*
X027483Y015049D01*
X027526Y015024D01*
X027566Y014995D01*
X027604Y014963D01*
X027640Y014929D01*
X027673Y014891D01*
X027702Y014851D01*
X027728Y014809D01*
X027751Y014765D01*
X027770Y014719D01*
X027786Y014672D01*
X027798Y014623D01*
X027806Y014574D01*
X027810Y014525D01*
X027810Y014475D01*
X027806Y014426D01*
X027798Y014377D01*
X027786Y014328D01*
X027770Y014281D01*
X027751Y014235D01*
X027728Y014191D01*
X027702Y014149D01*
X027673Y014109D01*
X027640Y014071D01*
X027604Y014037D01*
X027566Y014005D01*
X027526Y013976D01*
X027483Y013951D01*
X027438Y013929D01*
X027392Y013910D01*
X027345Y013896D01*
X027296Y013885D01*
X027247Y013878D01*
X027197Y013875D01*
X027148Y013876D01*
X027098Y013881D01*
X027049Y013890D01*
X027001Y013903D01*
X026954Y013919D01*
X026909Y013939D01*
X026865Y013963D01*
X026824Y013990D01*
X026784Y014020D01*
X026747Y014054D01*
X026713Y014090D01*
X026682Y014129D01*
X026654Y014170D01*
X026630Y014213D01*
X026609Y014258D01*
X026591Y014305D01*
X026578Y014352D01*
X026568Y014401D01*
X026562Y014450D01*
X026560Y014500D01*
X026560Y003500D02*
X026562Y003550D01*
X026568Y003599D01*
X026578Y003648D01*
X026591Y003695D01*
X026609Y003742D01*
X026630Y003787D01*
X026654Y003830D01*
X026682Y003871D01*
X026713Y003910D01*
X026747Y003946D01*
X026784Y003980D01*
X026824Y004010D01*
X026865Y004037D01*
X026909Y004061D01*
X026954Y004081D01*
X027001Y004097D01*
X027049Y004110D01*
X027098Y004119D01*
X027148Y004124D01*
X027197Y004125D01*
X027247Y004122D01*
X027296Y004115D01*
X027345Y004104D01*
X027392Y004090D01*
X027438Y004071D01*
X027483Y004049D01*
X027526Y004024D01*
X027566Y003995D01*
X027604Y003963D01*
X027640Y003929D01*
X027673Y003891D01*
X027702Y003851D01*
X027728Y003809D01*
X027751Y003765D01*
X027770Y003719D01*
X027786Y003672D01*
X027798Y003623D01*
X027806Y003574D01*
X027810Y003525D01*
X027810Y003475D01*
X027806Y003426D01*
X027798Y003377D01*
X027786Y003328D01*
X027770Y003281D01*
X027751Y003235D01*
X027728Y003191D01*
X027702Y003149D01*
X027673Y003109D01*
X027640Y003071D01*
X027604Y003037D01*
X027566Y003005D01*
X027526Y002976D01*
X027483Y002951D01*
X027438Y002929D01*
X027392Y002910D01*
X027345Y002896D01*
X027296Y002885D01*
X027247Y002878D01*
X027197Y002875D01*
X027148Y002876D01*
X027098Y002881D01*
X027049Y002890D01*
X027001Y002903D01*
X026954Y002919D01*
X026909Y002939D01*
X026865Y002963D01*
X026824Y002990D01*
X026784Y003020D01*
X026747Y003054D01*
X026713Y003090D01*
X026682Y003129D01*
X026654Y003170D01*
X026630Y003213D01*
X026609Y003258D01*
X026591Y003305D01*
X026578Y003352D01*
X026568Y003401D01*
X026562Y003450D01*
X026560Y003500D01*
X006060Y001500D02*
X006062Y001550D01*
X006068Y001599D01*
X006078Y001648D01*
X006091Y001695D01*
X006109Y001742D01*
X006130Y001787D01*
X006154Y001830D01*
X006182Y001871D01*
X006213Y001910D01*
X006247Y001946D01*
X006284Y001980D01*
X006324Y002010D01*
X006365Y002037D01*
X006409Y002061D01*
X006454Y002081D01*
X006501Y002097D01*
X006549Y002110D01*
X006598Y002119D01*
X006648Y002124D01*
X006697Y002125D01*
X006747Y002122D01*
X006796Y002115D01*
X006845Y002104D01*
X006892Y002090D01*
X006938Y002071D01*
X006983Y002049D01*
X007026Y002024D01*
X007066Y001995D01*
X007104Y001963D01*
X007140Y001929D01*
X007173Y001891D01*
X007202Y001851D01*
X007228Y001809D01*
X007251Y001765D01*
X007270Y001719D01*
X007286Y001672D01*
X007298Y001623D01*
X007306Y001574D01*
X007310Y001525D01*
X007310Y001475D01*
X007306Y001426D01*
X007298Y001377D01*
X007286Y001328D01*
X007270Y001281D01*
X007251Y001235D01*
X007228Y001191D01*
X007202Y001149D01*
X007173Y001109D01*
X007140Y001071D01*
X007104Y001037D01*
X007066Y001005D01*
X007026Y000976D01*
X006983Y000951D01*
X006938Y000929D01*
X006892Y000910D01*
X006845Y000896D01*
X006796Y000885D01*
X006747Y000878D01*
X006697Y000875D01*
X006648Y000876D01*
X006598Y000881D01*
X006549Y000890D01*
X006501Y000903D01*
X006454Y000919D01*
X006409Y000939D01*
X006365Y000963D01*
X006324Y000990D01*
X006284Y001020D01*
X006247Y001054D01*
X006213Y001090D01*
X006182Y001129D01*
X006154Y001170D01*
X006130Y001213D01*
X006109Y001258D01*
X006091Y001305D01*
X006078Y001352D01*
X006068Y001401D01*
X006062Y001450D01*
X006060Y001500D01*
D11*
X011995Y014480D03*
X024275Y015000D03*
D12*
X011995Y017020D03*
D13*
X003862Y020102D03*
D14*
X006435Y017550D03*
X006435Y016300D03*
X007935Y016300D03*
X007935Y014800D03*
X007935Y014800D03*
X006435Y014800D03*
X006185Y013300D03*
X007935Y013300D03*
X003935Y011552D03*
X008185Y008748D03*
X008185Y007500D03*
X008185Y006000D03*
X008185Y006000D03*
X008185Y004500D03*
X008185Y003252D03*
X006185Y004500D03*
X006185Y006000D03*
X006185Y006000D03*
X006185Y007500D03*
D15*
X004685Y007500D03*
X002685Y004500D03*
X002685Y004500D03*
X002685Y013300D03*
X002685Y013300D03*
X004685Y016300D03*
X004685Y016300D03*
D16*
X004685Y007500D03*
D17*
X024295Y008010D02*
X025075Y008010D01*
X025075Y006050D02*
X024295Y006050D01*
X024295Y009990D02*
X025075Y009990D01*
X025075Y011950D02*
X024295Y011950D01*
X024275Y016170D02*
X025055Y016170D01*
X025055Y018140D02*
X024275Y018140D01*
D18*
X015585Y005394D03*
X014585Y005394D03*
X013585Y005394D03*
X012585Y005394D03*
D19*
X011185Y001800D02*
X011185Y001200D01*
X010185Y001200D02*
X010185Y001800D01*
X009185Y001800D02*
X009185Y001200D01*
X020185Y003200D02*
X020185Y003800D01*
X021185Y003800D02*
X021185Y003200D01*
D20*
X001185Y000500D02*
X001185Y021500D01*
X026585Y021500D01*
X027185Y020900D01*
X027185Y016400D01*
X028185Y015400D01*
X028185Y002500D01*
X027185Y001500D01*
X027185Y000500D01*
X001185Y000500D01*
D21*
X006685Y001500D03*
X027185Y003500D03*
X027185Y014500D03*
X007185Y020500D03*
D22*
X008585Y020243D02*
X008585Y020757D01*
X009585Y020757D02*
X009585Y020243D01*
X010585Y020243D02*
X010585Y020757D01*
X011585Y020757D02*
X011585Y020243D01*
X012585Y020243D02*
X012585Y020757D01*
X013585Y020757D02*
X013585Y020243D01*
X014585Y020243D02*
X014585Y020757D01*
X015585Y020757D02*
X015585Y020243D01*
X016585Y020243D02*
X016585Y020757D01*
X017585Y020757D02*
X017585Y020243D01*
X019185Y020243D02*
X019185Y020757D01*
X020185Y020757D02*
X020185Y020243D01*
X021185Y020243D02*
X021185Y020757D01*
X022185Y020757D02*
X022185Y020243D01*
X023185Y020243D02*
X023185Y020757D01*
X024185Y020757D02*
X024185Y020243D01*
X025185Y020243D02*
X025185Y020757D01*
X026185Y020757D02*
X026185Y020243D01*
X026185Y001757D02*
X026185Y001243D01*
X025185Y001243D02*
X025185Y001757D01*
X024185Y001757D02*
X024185Y001243D01*
X023185Y001243D02*
X023185Y001757D01*
X022185Y001757D02*
X022185Y001243D01*
X021185Y001243D02*
X021185Y001757D01*
X019185Y001757D02*
X019185Y001243D01*
X018185Y001243D02*
X018185Y001757D01*
X017185Y001757D02*
X017185Y001243D01*
X016185Y001243D02*
X016185Y001757D01*
X015185Y001757D02*
X015185Y001243D01*
X014185Y001243D02*
X014185Y001757D01*
X013185Y001757D02*
X013185Y001243D01*
X012185Y001243D02*
X012185Y001757D01*
D23*
X012585Y017600D03*
X013585Y017600D03*
X013585Y018600D03*
X012585Y018600D03*
X014585Y018600D03*
X014585Y017600D03*
X015585Y017600D03*
X016585Y017600D03*
X016585Y018600D03*
X015585Y018600D03*
M02*
