G75*
G70*
%OFA0B0*%
%FSLAX24Y24*%
%IPPOS*%
%LPD*%
%AMOC8*
5,1,8,0,0,1.08239X$1,22.5*
%
%ADD10C,0.0060*%
%ADD11C,0.0030*%
%ADD12C,0.0050*%
%ADD13C,0.0020*%
%ADD14C,0.0100*%
%ADD15C,0.0070*%
%ADD16C,0.0040*%
%ADD17C,0.0110*%
D10*
X009025Y002383D02*
X009138Y002497D01*
X009365Y002497D01*
X009195Y002497D02*
X009195Y002270D01*
X009138Y002270D02*
X009025Y002383D01*
X009138Y002270D02*
X009365Y002270D01*
X009195Y002638D02*
X009195Y002865D01*
X009365Y003007D02*
X009365Y003177D01*
X009308Y003233D01*
X009081Y003233D01*
X009025Y003177D01*
X009025Y003007D01*
X009365Y003007D01*
X009365Y003375D02*
X009025Y003375D01*
X009138Y003488D01*
X009025Y003602D01*
X009365Y003602D01*
X009365Y003743D02*
X009025Y003970D01*
X009025Y003743D02*
X009365Y003970D01*
X010025Y003970D02*
X010365Y003743D01*
X010365Y003602D02*
X010025Y003602D01*
X010138Y003488D01*
X010025Y003375D01*
X010365Y003375D01*
X010308Y003233D02*
X010081Y003233D01*
X010025Y003177D01*
X010025Y003007D01*
X010365Y003007D01*
X010365Y003177D01*
X010308Y003233D01*
X010195Y002865D02*
X010195Y002638D01*
X010252Y002497D02*
X010195Y002440D01*
X010195Y002270D01*
X010365Y002270D02*
X010025Y002270D01*
X010025Y002440D01*
X010081Y002497D01*
X010138Y002497D01*
X010195Y002440D01*
X010252Y002497D02*
X010308Y002497D01*
X010365Y002440D01*
X010365Y002270D01*
X011025Y002327D02*
X011081Y002270D01*
X011308Y002270D01*
X011365Y002327D01*
X011365Y002440D01*
X011308Y002497D01*
X011195Y002497D01*
X011195Y002383D01*
X011081Y002497D02*
X011025Y002440D01*
X011025Y002327D01*
X011025Y002638D02*
X011365Y002865D01*
X011025Y002865D01*
X011025Y003007D02*
X011025Y003177D01*
X011081Y003233D01*
X011308Y003233D01*
X011365Y003177D01*
X011365Y003007D01*
X011025Y003007D01*
X011025Y002638D02*
X011365Y002638D01*
X012025Y002695D02*
X012081Y002638D01*
X012308Y002638D01*
X012365Y002695D01*
X012365Y002808D01*
X012308Y002865D01*
X012081Y002865D02*
X012025Y002808D01*
X012025Y002695D01*
X012025Y002497D02*
X012365Y002497D01*
X012025Y002270D01*
X012365Y002270D01*
X011195Y003375D02*
X011195Y003602D01*
X011025Y003743D02*
X011365Y003743D01*
X011365Y003913D01*
X011308Y003970D01*
X011081Y003970D01*
X011025Y003913D01*
X011025Y003743D01*
X011025Y004112D02*
X011138Y004225D01*
X011025Y004338D01*
X011365Y004338D01*
X011365Y004480D02*
X011025Y004707D01*
X011025Y004480D02*
X011365Y004707D01*
X011365Y004112D02*
X011025Y004112D01*
X010365Y003970D02*
X010025Y003743D01*
X014025Y003233D02*
X014025Y003007D01*
X014025Y003120D02*
X014365Y003120D01*
X014308Y002865D02*
X014365Y002808D01*
X014365Y002695D01*
X014308Y002638D01*
X014195Y002695D02*
X014195Y002808D01*
X014252Y002865D01*
X014308Y002865D01*
X014195Y002695D02*
X014138Y002638D01*
X014081Y002638D01*
X014025Y002695D01*
X014025Y002808D01*
X014081Y002865D01*
X014081Y002497D02*
X014195Y002497D01*
X014252Y002440D01*
X014252Y002270D01*
X014365Y002270D02*
X014025Y002270D01*
X014025Y002440D01*
X014081Y002497D01*
X014252Y002383D02*
X014365Y002497D01*
X015025Y002440D02*
X015025Y002327D01*
X015081Y002270D01*
X015195Y002383D02*
X015195Y002440D01*
X015252Y002497D01*
X015308Y002497D01*
X015365Y002440D01*
X015365Y002327D01*
X015308Y002270D01*
X015195Y002440D02*
X015138Y002497D01*
X015081Y002497D01*
X015025Y002440D01*
X015025Y002638D02*
X015252Y002638D01*
X015365Y002752D01*
X015252Y002865D01*
X015025Y002865D01*
X015081Y003007D02*
X015025Y003063D01*
X015025Y003177D01*
X015081Y003233D01*
X015138Y003233D01*
X015195Y003177D01*
X015252Y003233D01*
X015308Y003233D01*
X015365Y003177D01*
X015365Y003063D01*
X015308Y003007D01*
X015195Y003120D02*
X015195Y003177D01*
X016025Y002865D02*
X016252Y002865D01*
X016365Y002752D01*
X016252Y002638D01*
X016025Y002638D01*
X016025Y002497D02*
X016025Y002270D01*
X016195Y002270D01*
X016138Y002383D01*
X016138Y002440D01*
X016195Y002497D01*
X016308Y002497D01*
X016365Y002440D01*
X016365Y002327D01*
X016308Y002270D01*
X017025Y002327D02*
X017081Y002270D01*
X017308Y002270D01*
X017365Y002327D01*
X017365Y002440D01*
X017308Y002497D01*
X017195Y002497D01*
X017195Y002383D01*
X017081Y002497D02*
X017025Y002440D01*
X017025Y002327D01*
X017025Y002638D02*
X017365Y002865D01*
X017025Y002865D01*
X017025Y003007D02*
X017025Y003177D01*
X017081Y003233D01*
X017308Y003233D01*
X017365Y003177D01*
X017365Y003007D01*
X017025Y003007D01*
X017025Y002638D02*
X017365Y002638D01*
X018025Y002638D02*
X018365Y002865D01*
X018025Y002865D01*
X018025Y003007D02*
X018025Y003177D01*
X018081Y003233D01*
X018308Y003233D01*
X018365Y003177D01*
X018365Y003007D01*
X018025Y003007D01*
X018025Y002638D02*
X018365Y002638D01*
X018308Y002497D02*
X018195Y002497D01*
X018195Y002383D01*
X018308Y002270D02*
X018081Y002270D01*
X018025Y002327D01*
X018025Y002440D01*
X018081Y002497D01*
X018308Y002497D02*
X018365Y002440D01*
X018365Y002327D01*
X018308Y002270D01*
X019025Y002270D02*
X019252Y002270D01*
X019365Y002383D01*
X019252Y002497D01*
X019025Y002497D01*
X019025Y002638D02*
X019025Y002752D01*
X019025Y002695D02*
X019365Y002695D01*
X019365Y002638D02*
X019365Y002752D01*
X019365Y002884D02*
X019025Y002884D01*
X019365Y003111D01*
X019025Y003111D01*
X020992Y002801D02*
X021048Y002857D01*
X021275Y002631D01*
X021332Y002687D01*
X021332Y002801D01*
X021275Y002857D01*
X021048Y002857D01*
X020992Y002801D02*
X020992Y002687D01*
X021048Y002631D01*
X021275Y002631D01*
X021332Y002489D02*
X021105Y002489D01*
X020992Y002376D01*
X021105Y002262D01*
X021332Y002262D01*
X021162Y002262D02*
X021162Y002489D01*
X021988Y002376D02*
X022101Y002489D01*
X022328Y002489D01*
X022328Y002631D02*
X022328Y002857D01*
X022328Y002744D02*
X021988Y002744D01*
X022101Y002631D01*
X022158Y002489D02*
X022158Y002262D01*
X022101Y002262D02*
X022328Y002262D01*
X022101Y002262D02*
X021988Y002376D01*
X022984Y002376D02*
X023097Y002489D01*
X023324Y002489D01*
X023324Y002631D02*
X023097Y002857D01*
X023040Y002857D01*
X022984Y002801D01*
X022984Y002687D01*
X023040Y002631D01*
X023154Y002489D02*
X023154Y002262D01*
X023097Y002262D02*
X022984Y002376D01*
X023097Y002262D02*
X023324Y002262D01*
X023324Y002631D02*
X023324Y002857D01*
X023980Y002801D02*
X024036Y002857D01*
X024093Y002857D01*
X024150Y002801D01*
X024206Y002857D01*
X024263Y002857D01*
X024320Y002801D01*
X024320Y002687D01*
X024263Y002631D01*
X024320Y002489D02*
X024093Y002489D01*
X023980Y002376D01*
X024093Y002262D01*
X024320Y002262D01*
X024150Y002262D02*
X024150Y002489D01*
X024036Y002631D02*
X023980Y002687D01*
X023980Y002801D01*
X024150Y002801D02*
X024150Y002744D01*
X024976Y002801D02*
X025146Y002631D01*
X025146Y002857D01*
X025316Y002801D02*
X024976Y002801D01*
X025089Y002489D02*
X025316Y002489D01*
X025146Y002489D02*
X025146Y002262D01*
X025089Y002262D02*
X024976Y002376D01*
X025089Y002489D01*
X025089Y002262D02*
X025316Y002262D01*
X025972Y002376D02*
X026085Y002489D01*
X026312Y002489D01*
X026255Y002631D02*
X026312Y002687D01*
X026312Y002801D01*
X026255Y002857D01*
X026142Y002857D01*
X026085Y002801D01*
X026085Y002744D01*
X026142Y002631D01*
X025972Y002631D01*
X025972Y002857D01*
X026142Y002489D02*
X026142Y002262D01*
X026085Y002262D02*
X025972Y002376D01*
X026085Y002262D02*
X026312Y002262D01*
X026615Y005745D02*
X026955Y005745D01*
X026842Y005858D01*
X026955Y005972D01*
X026615Y005972D01*
X026615Y006113D02*
X026955Y006113D01*
X026842Y006227D01*
X026955Y006340D01*
X026615Y006340D01*
X026615Y006481D02*
X026955Y006481D01*
X026842Y006595D01*
X026955Y006708D01*
X026615Y006708D01*
X026898Y006850D02*
X026898Y006907D01*
X026955Y006907D01*
X026955Y006850D01*
X026898Y006850D01*
X026955Y007034D02*
X026615Y007261D01*
X026615Y007402D02*
X026615Y007516D01*
X026615Y007459D02*
X026955Y007459D01*
X026955Y007402D02*
X026955Y007516D01*
X026955Y007648D02*
X026615Y007648D01*
X026615Y007818D01*
X026671Y007875D01*
X026785Y007875D01*
X026842Y007818D01*
X026842Y007648D01*
X026842Y007761D02*
X026955Y007875D01*
X026898Y008016D02*
X026955Y008073D01*
X026955Y008186D01*
X026898Y008243D01*
X026615Y008243D01*
X026615Y008384D02*
X026955Y008611D01*
X026955Y008753D02*
X026898Y008753D01*
X026898Y008809D01*
X026955Y008809D01*
X026955Y008753D01*
X026898Y008937D02*
X026955Y008994D01*
X026955Y009107D01*
X026898Y009164D01*
X026898Y009305D02*
X026955Y009362D01*
X026955Y009475D01*
X026898Y009532D01*
X026671Y009532D01*
X026615Y009475D01*
X026615Y009362D01*
X026671Y009305D01*
X026898Y009305D01*
X026671Y009164D02*
X026615Y009107D01*
X026615Y008994D01*
X026671Y008937D01*
X026898Y008937D01*
X026615Y008611D02*
X026955Y008384D01*
X026898Y008016D02*
X026615Y008016D01*
X026955Y007261D02*
X026615Y007034D01*
X026615Y009674D02*
X026728Y009787D01*
X026615Y009900D01*
X026955Y009900D01*
X026955Y010042D02*
X026615Y010269D01*
X026615Y010410D02*
X026615Y010580D01*
X026671Y010637D01*
X026898Y010637D01*
X026955Y010580D01*
X026955Y010410D01*
X026615Y010410D01*
X026615Y010778D02*
X026728Y010892D01*
X026615Y011005D01*
X026955Y011005D01*
X026955Y011147D02*
X026615Y011374D01*
X026615Y011147D02*
X026955Y011374D01*
X026955Y010778D02*
X026615Y010778D01*
X026615Y009674D02*
X026955Y009674D01*
X021574Y013387D02*
X021517Y013330D01*
X021347Y013330D01*
X021347Y013670D01*
X021517Y013670D01*
X021574Y013614D01*
X021574Y013557D01*
X021517Y013500D01*
X021347Y013500D01*
X021205Y013557D02*
X020978Y013330D01*
X021205Y013330D01*
X021205Y013557D02*
X021205Y013614D01*
X021149Y013670D01*
X021035Y013670D01*
X020978Y013614D01*
X020851Y013387D02*
X020851Y013330D01*
X020794Y013330D01*
X020794Y013387D01*
X020851Y013387D01*
X020653Y013330D02*
X020426Y013330D01*
X020539Y013330D02*
X020539Y013670D01*
X020426Y013557D01*
X020298Y013387D02*
X020298Y013330D01*
X020242Y013330D01*
X020242Y013387D01*
X020298Y013387D01*
X020100Y013443D02*
X020100Y013670D01*
X020100Y013443D02*
X019987Y013330D01*
X019873Y013443D01*
X019873Y013670D01*
X021517Y013500D02*
X021574Y013443D01*
X021574Y013387D01*
X015745Y019193D02*
X015745Y019420D01*
X015745Y019307D02*
X015405Y019307D01*
X015518Y019193D01*
X015461Y019562D02*
X015405Y019618D01*
X015405Y019732D01*
X015461Y019789D01*
X015688Y019562D01*
X015745Y019618D01*
X015745Y019732D01*
X015688Y019789D01*
X015461Y019789D01*
X015461Y019562D02*
X015688Y019562D01*
X016405Y019618D02*
X016461Y019562D01*
X016518Y019562D01*
X016575Y019618D01*
X016575Y019789D01*
X016688Y019789D02*
X016461Y019789D01*
X016405Y019732D01*
X016405Y019618D01*
X016688Y019562D02*
X016745Y019618D01*
X016745Y019732D01*
X016688Y019789D01*
X017405Y019732D02*
X017405Y019618D01*
X017461Y019562D01*
X017518Y019562D01*
X017575Y019618D01*
X017575Y019732D01*
X017632Y019789D01*
X017688Y019789D01*
X017745Y019732D01*
X017745Y019618D01*
X017688Y019562D01*
X017632Y019562D01*
X017575Y019618D01*
X017575Y019732D02*
X017518Y019789D01*
X017461Y019789D01*
X017405Y019732D01*
X019015Y019789D02*
X019015Y019562D01*
X019015Y019789D02*
X019071Y019789D01*
X019298Y019562D01*
X019355Y019562D01*
X020015Y019789D02*
X020071Y019675D01*
X020185Y019562D01*
X020185Y019732D01*
X020242Y019789D01*
X020298Y019789D01*
X020355Y019732D01*
X020355Y019618D01*
X020298Y019562D01*
X020185Y019562D01*
X021015Y019562D02*
X021185Y019562D01*
X021128Y019675D01*
X021128Y019732D01*
X021185Y019789D01*
X021298Y019789D01*
X021355Y019732D01*
X021355Y019618D01*
X021298Y019562D01*
X021015Y019562D02*
X021015Y019789D01*
X022015Y019732D02*
X022185Y019562D01*
X022185Y019789D01*
X022355Y019732D02*
X022015Y019732D01*
X023015Y019732D02*
X023015Y019618D01*
X023071Y019562D01*
X023185Y019675D02*
X023185Y019732D01*
X023242Y019789D01*
X023298Y019789D01*
X023355Y019732D01*
X023355Y019618D01*
X023298Y019562D01*
X023185Y019732D02*
X023128Y019789D01*
X023071Y019789D01*
X023015Y019732D01*
X024015Y019732D02*
X024015Y019618D01*
X024071Y019562D01*
X024015Y019732D02*
X024071Y019789D01*
X024128Y019789D01*
X024355Y019562D01*
X024355Y019789D01*
X025015Y019675D02*
X025355Y019675D01*
X025355Y019562D02*
X025355Y019789D01*
X025128Y019562D02*
X025015Y019675D01*
X026015Y019618D02*
X026015Y019732D01*
X026071Y019789D01*
X026298Y019562D01*
X026355Y019618D01*
X026355Y019732D01*
X026298Y019789D01*
X026071Y019789D01*
X026015Y019618D02*
X026071Y019562D01*
X026298Y019562D01*
X014745Y019562D02*
X014745Y019789D01*
X014745Y019675D02*
X014405Y019675D01*
X014518Y019562D01*
X014745Y019420D02*
X014745Y019193D01*
X014745Y019307D02*
X014405Y019307D01*
X014518Y019193D01*
X013745Y019193D02*
X013745Y019420D01*
X013745Y019307D02*
X013405Y019307D01*
X013518Y019193D01*
X013461Y019562D02*
X013405Y019618D01*
X013405Y019732D01*
X013461Y019789D01*
X013518Y019789D01*
X013745Y019562D01*
X013745Y019789D01*
X012745Y019732D02*
X012745Y019618D01*
X012688Y019562D01*
X012745Y019420D02*
X012745Y019193D01*
X012745Y019307D02*
X012405Y019307D01*
X012518Y019193D01*
X012461Y019562D02*
X012405Y019618D01*
X012405Y019732D01*
X012461Y019789D01*
X012518Y019789D01*
X012575Y019732D01*
X012632Y019789D01*
X012688Y019789D01*
X012745Y019732D01*
X012575Y019732D02*
X012575Y019675D01*
X011745Y019732D02*
X011745Y019562D01*
X011405Y019562D01*
X011405Y019732D01*
X011461Y019789D01*
X011688Y019789D01*
X011745Y019732D01*
X011745Y019420D02*
X011405Y019420D01*
X011405Y019193D02*
X011745Y019420D01*
X011745Y019193D02*
X011405Y019193D01*
X011461Y019052D02*
X011405Y018995D01*
X011405Y018882D01*
X011461Y018825D01*
X011688Y018825D01*
X011745Y018882D01*
X011745Y018995D01*
X011688Y019052D01*
X011575Y019052D01*
X011575Y018938D01*
X009745Y018882D02*
X009688Y018825D01*
X009745Y018882D02*
X009745Y018995D01*
X009688Y019052D01*
X009632Y019052D01*
X009575Y018995D01*
X009575Y018882D01*
X009518Y018825D01*
X009461Y018825D01*
X009405Y018882D01*
X009405Y018995D01*
X009461Y019052D01*
X009405Y019193D02*
X009405Y019364D01*
X009461Y019420D01*
X009688Y019420D01*
X009745Y019364D01*
X009745Y019193D01*
X009405Y019193D01*
X009518Y019562D02*
X009405Y019675D01*
X009518Y019789D01*
X009745Y019789D01*
X009575Y019789D02*
X009575Y019562D01*
X009518Y019562D02*
X009745Y019562D01*
X008745Y019562D02*
X008745Y019789D01*
X008745Y019562D02*
X008405Y019562D01*
X008461Y019420D02*
X008405Y019364D01*
X008405Y019250D01*
X008461Y019193D01*
X008688Y019193D01*
X008745Y019250D01*
X008745Y019364D01*
X008688Y019420D01*
X008688Y019052D02*
X008745Y018995D01*
X008745Y018882D01*
X008688Y018825D01*
X008575Y018882D02*
X008518Y018825D01*
X008461Y018825D01*
X008405Y018882D01*
X008405Y018995D01*
X008461Y019052D01*
X008575Y018995D02*
X008632Y019052D01*
X008688Y019052D01*
X008575Y018995D02*
X008575Y018882D01*
D11*
X010480Y019011D02*
X010550Y019081D01*
X010690Y019081D01*
X010690Y019162D02*
X010480Y019162D01*
X010480Y019267D01*
X010515Y019302D01*
X010585Y019302D01*
X010620Y019267D01*
X010620Y019162D01*
X010620Y019232D02*
X010690Y019302D01*
X010690Y019383D02*
X010690Y019523D01*
X010690Y019604D02*
X010480Y019604D01*
X010480Y019744D01*
X010585Y019674D02*
X010585Y019604D01*
X010480Y019523D02*
X010480Y019383D01*
X010690Y019383D01*
X010585Y019383D02*
X010585Y019453D01*
X010585Y019081D02*
X010585Y018941D01*
X010550Y018941D02*
X010480Y019011D01*
X010550Y018941D02*
X010690Y018941D01*
X020200Y011957D02*
X020200Y011763D01*
X020248Y011715D01*
X020345Y011715D01*
X020393Y011763D01*
X020393Y011957D01*
X020345Y012005D01*
X020248Y012005D01*
X020200Y011957D01*
X020297Y011812D02*
X020393Y011715D01*
X020495Y011715D02*
X020688Y011715D01*
X020591Y011715D02*
X020591Y012005D01*
X020495Y011908D01*
X020543Y009405D02*
X020495Y009357D01*
X020543Y009405D02*
X020640Y009405D01*
X020688Y009357D01*
X020688Y009308D01*
X020495Y009115D01*
X020688Y009115D01*
X020393Y009115D02*
X020297Y009212D01*
X020393Y009163D02*
X020345Y009115D01*
X020248Y009115D01*
X020200Y009163D01*
X020200Y009357D01*
X020248Y009405D01*
X020345Y009405D01*
X020393Y009357D01*
X020393Y009163D01*
X020345Y006905D02*
X020393Y006857D01*
X020393Y006663D01*
X020345Y006615D01*
X020248Y006615D01*
X020200Y006663D01*
X020200Y006857D01*
X020248Y006905D01*
X020345Y006905D01*
X020495Y006857D02*
X020543Y006905D01*
X020640Y006905D01*
X020688Y006857D01*
X020688Y006808D01*
X020640Y006760D01*
X020688Y006712D01*
X020688Y006663D01*
X020640Y006615D01*
X020543Y006615D01*
X020495Y006663D01*
X020393Y006615D02*
X020297Y006712D01*
X020591Y006760D02*
X020640Y006760D01*
X013290Y003065D02*
X013080Y003065D01*
X013080Y003205D01*
X013185Y003135D02*
X013185Y003065D01*
X013290Y002984D02*
X013290Y002844D01*
X013080Y002844D01*
X013080Y002984D01*
X013185Y002914D02*
X013185Y002844D01*
X013185Y002763D02*
X013220Y002728D01*
X013220Y002623D01*
X013290Y002623D02*
X013080Y002623D01*
X013080Y002728D01*
X013115Y002763D01*
X013185Y002763D01*
X013220Y002693D02*
X013290Y002763D01*
X013255Y002542D02*
X013115Y002542D01*
X013080Y002507D01*
X013080Y002437D01*
X013115Y002402D01*
X013255Y002402D01*
X013290Y002437D01*
X013290Y002507D01*
X013255Y002542D01*
X013290Y002325D02*
X013290Y002255D01*
X013290Y002290D02*
X013080Y002290D01*
X013080Y002255D02*
X013080Y002325D01*
D12*
X009300Y017415D02*
X009030Y017415D01*
X009300Y017415D02*
X009300Y017595D01*
X009300Y017710D02*
X009300Y017890D01*
X009300Y018004D02*
X009030Y018004D01*
X009030Y018139D01*
X009075Y018184D01*
X009255Y018184D01*
X009300Y018139D01*
X009300Y018004D01*
X009165Y017800D02*
X009165Y017710D01*
X009030Y017710D02*
X009300Y017710D01*
X009030Y017710D02*
X009030Y017890D01*
X009030Y018594D02*
X009300Y018594D01*
D13*
X010415Y017150D02*
X010525Y017150D01*
X010562Y017113D01*
X010562Y017040D01*
X010525Y017003D01*
X010415Y017003D01*
X010415Y016930D02*
X010415Y017150D01*
X010488Y017003D02*
X010562Y016930D01*
X010636Y016967D02*
X010673Y016930D01*
X010746Y016930D01*
X010783Y016967D01*
X010783Y017113D01*
X010746Y017150D01*
X010673Y017150D01*
X010636Y017113D01*
X010636Y017077D01*
X010673Y017040D01*
X010783Y017040D01*
X011165Y017003D02*
X011275Y017003D01*
X011312Y017040D01*
X011312Y017113D01*
X011275Y017150D01*
X011165Y017150D01*
X011165Y016930D01*
X011238Y017003D02*
X011312Y016930D01*
X011386Y016967D02*
X011423Y016930D01*
X011496Y016930D01*
X011533Y016967D01*
X011533Y017003D01*
X011496Y017040D01*
X011386Y017040D01*
X011386Y016967D01*
X011386Y017040D02*
X011459Y017113D01*
X011533Y017150D01*
X012495Y016703D02*
X012542Y016750D01*
X012542Y016610D01*
X012588Y016610D02*
X012495Y016610D01*
X012642Y016610D02*
X012736Y016703D01*
X012736Y016727D01*
X012712Y016750D01*
X012666Y016750D01*
X012642Y016727D01*
X012642Y016610D02*
X012736Y016610D01*
X012790Y016633D02*
X012883Y016727D01*
X012883Y016633D01*
X012860Y016610D01*
X012813Y016610D01*
X012790Y016633D01*
X012790Y016727D01*
X012813Y016750D01*
X012860Y016750D01*
X012883Y016727D01*
X012937Y016727D02*
X012960Y016750D01*
X013007Y016750D01*
X013030Y016727D01*
X013030Y016680D01*
X013007Y016657D01*
X013007Y016610D01*
X013030Y016610D01*
X012960Y016610D02*
X012960Y016657D01*
X012937Y016680D01*
X012937Y016727D01*
X012937Y016610D02*
X012960Y016610D01*
X014465Y015691D02*
X014502Y015728D01*
X014538Y015728D01*
X014575Y015691D01*
X014612Y015728D01*
X014648Y015728D01*
X014685Y015691D01*
X014685Y015618D01*
X014648Y015581D01*
X014685Y015507D02*
X014612Y015433D01*
X014612Y015470D02*
X014612Y015360D01*
X014685Y015360D02*
X014465Y015360D01*
X014465Y015470D01*
X014502Y015507D01*
X014575Y015507D01*
X014612Y015470D01*
X014502Y015581D02*
X014465Y015618D01*
X014465Y015691D01*
X014575Y015691D02*
X014575Y015654D01*
X015475Y015628D02*
X015512Y015591D01*
X015475Y015628D02*
X015475Y015701D01*
X015512Y015738D01*
X015548Y015738D01*
X015695Y015591D01*
X015695Y015738D01*
X015695Y015517D02*
X015622Y015443D01*
X015622Y015480D02*
X015622Y015370D01*
X015695Y015370D02*
X015475Y015370D01*
X015475Y015480D01*
X015512Y015517D01*
X015585Y015517D01*
X015622Y015480D01*
X016485Y015480D02*
X016485Y015370D01*
X016705Y015370D01*
X016632Y015370D02*
X016632Y015480D01*
X016595Y015517D01*
X016522Y015517D01*
X016485Y015480D01*
X016558Y015591D02*
X016485Y015664D01*
X016705Y015664D01*
X016705Y015591D02*
X016705Y015738D01*
X016705Y015517D02*
X016632Y015443D01*
X013351Y011510D02*
X013204Y011510D01*
X013204Y011400D01*
X013277Y011437D01*
X013314Y011437D01*
X013351Y011400D01*
X013351Y011327D01*
X013314Y011290D01*
X013241Y011290D01*
X013204Y011327D01*
X013130Y011290D02*
X013056Y011363D01*
X013093Y011363D02*
X012983Y011363D01*
X012983Y011290D02*
X012983Y011510D01*
X013093Y011510D01*
X013130Y011473D01*
X013130Y011400D01*
X013093Y011363D01*
X013093Y010610D02*
X013020Y010610D01*
X012983Y010573D01*
X012983Y010427D01*
X013020Y010390D01*
X013093Y010390D01*
X013130Y010427D01*
X013204Y010390D02*
X013351Y010537D01*
X013351Y010573D01*
X013314Y010610D01*
X013241Y010610D01*
X013204Y010573D01*
X013130Y010573D02*
X013093Y010610D01*
X013204Y010390D02*
X013351Y010390D01*
X013314Y009610D02*
X013204Y009500D01*
X013351Y009500D01*
X013314Y009390D02*
X013314Y009610D01*
X013130Y009573D02*
X013130Y009500D01*
X013093Y009463D01*
X012983Y009463D01*
X012983Y009390D02*
X012983Y009610D01*
X013093Y009610D01*
X013130Y009573D01*
X013056Y009463D02*
X013130Y009390D01*
X012178Y008471D02*
X012215Y008434D01*
X012215Y008361D01*
X012178Y008324D01*
X012105Y008324D02*
X012068Y008397D01*
X012068Y008434D01*
X012105Y008471D01*
X012178Y008471D01*
X012105Y008324D02*
X011995Y008324D01*
X011995Y008471D01*
X012032Y008250D02*
X012068Y008250D01*
X012105Y008213D01*
X012105Y008140D01*
X012068Y008103D01*
X012032Y008103D01*
X011995Y008140D01*
X011995Y008213D01*
X012032Y008250D01*
X012105Y008213D02*
X012142Y008250D01*
X012178Y008250D01*
X012215Y008213D01*
X012215Y008140D01*
X012178Y008103D01*
X012142Y008103D01*
X012105Y008140D01*
X012105Y008029D02*
X012105Y007882D01*
X011995Y007992D01*
X012215Y007992D01*
X012178Y007808D02*
X012215Y007771D01*
X012215Y007698D01*
X012178Y007661D01*
X012105Y007698D02*
X012105Y007771D01*
X012142Y007808D01*
X012178Y007808D01*
X012105Y007698D02*
X012068Y007661D01*
X012032Y007661D01*
X011995Y007698D01*
X011995Y007771D01*
X012032Y007808D01*
X012032Y007587D02*
X012105Y007587D01*
X012142Y007550D01*
X012142Y007440D01*
X012215Y007440D02*
X011995Y007440D01*
X011995Y007550D01*
X012032Y007587D01*
X012142Y007513D02*
X012215Y007587D01*
X010772Y007677D02*
X010735Y007640D01*
X010625Y007640D01*
X010625Y007860D01*
X010735Y007860D01*
X010772Y007823D01*
X010772Y007787D01*
X010735Y007750D01*
X010625Y007750D01*
X010735Y007750D02*
X010772Y007713D01*
X010772Y007677D01*
X010772Y008130D02*
X010772Y008277D01*
X010698Y008350D01*
X010625Y008277D01*
X010625Y008130D01*
X010625Y008240D02*
X010772Y008240D01*
X010112Y007248D02*
X010258Y007101D01*
X010295Y007101D01*
X010295Y007027D02*
X010222Y006953D01*
X010222Y006990D02*
X010222Y006880D01*
X010295Y006880D02*
X010075Y006880D01*
X010075Y006990D01*
X010112Y007027D01*
X010185Y007027D01*
X010222Y006990D01*
X010075Y007101D02*
X010075Y007248D01*
X010112Y007248D01*
X009295Y007211D02*
X009295Y007138D01*
X009258Y007101D01*
X009222Y007101D01*
X009185Y007138D01*
X009185Y007211D01*
X009222Y007248D01*
X009258Y007248D01*
X009295Y007211D01*
X009185Y007211D02*
X009148Y007248D01*
X009112Y007248D01*
X009075Y007211D01*
X009075Y007138D01*
X009112Y007101D01*
X009148Y007101D01*
X009185Y007138D01*
X009185Y007027D02*
X009222Y006990D01*
X009222Y006880D01*
X009295Y006880D02*
X009075Y006880D01*
X009075Y006990D01*
X009112Y007027D01*
X009185Y007027D01*
X009222Y006953D02*
X009295Y007027D01*
X011595Y006131D02*
X011595Y006058D01*
X011632Y006021D01*
X011632Y005947D02*
X011595Y005910D01*
X011595Y005837D01*
X011632Y005800D01*
X011778Y005800D01*
X011815Y005837D01*
X011815Y005910D01*
X011778Y005947D01*
X011778Y006021D02*
X011815Y006058D01*
X011815Y006131D01*
X011778Y006168D01*
X011742Y006168D01*
X011705Y006131D01*
X011705Y006094D01*
X011705Y006131D02*
X011668Y006168D01*
X011632Y006168D01*
X011595Y006131D01*
X014281Y004753D02*
X014318Y004790D01*
X014391Y004790D01*
X014428Y004753D01*
X014428Y004680D02*
X014355Y004643D01*
X014318Y004643D01*
X014281Y004680D01*
X014281Y004753D01*
X014428Y004680D02*
X014428Y004570D01*
X014281Y004570D01*
X014502Y004607D02*
X014649Y004753D01*
X014612Y004790D01*
X014539Y004790D01*
X014502Y004753D01*
X014502Y004607D01*
X014539Y004570D01*
X014612Y004570D01*
X014649Y004607D01*
X014649Y004753D01*
X014723Y004753D02*
X014760Y004790D01*
X014833Y004790D01*
X014870Y004753D01*
X014870Y004680D02*
X014797Y004643D01*
X014760Y004643D01*
X014723Y004680D01*
X014723Y004753D01*
X014870Y004680D02*
X014870Y004570D01*
X014723Y004570D01*
X014944Y004607D02*
X015091Y004753D01*
X015054Y004790D01*
X014981Y004790D01*
X014944Y004753D01*
X014944Y004607D01*
X014981Y004570D01*
X015054Y004570D01*
X015091Y004607D01*
X015091Y004753D01*
X015165Y004753D02*
X015202Y004790D01*
X015275Y004790D01*
X015312Y004753D01*
X015312Y004607D01*
X015275Y004570D01*
X015202Y004570D01*
X015165Y004607D01*
X015386Y004607D02*
X015423Y004570D01*
X015533Y004570D01*
X015533Y004790D01*
X015423Y004790D01*
X015386Y004753D01*
X015386Y004607D01*
X015607Y004607D02*
X015644Y004570D01*
X015717Y004570D01*
X015754Y004607D01*
X015754Y004753D01*
X015717Y004790D01*
X015644Y004790D01*
X015607Y004753D01*
X015828Y004753D02*
X015828Y004607D01*
X015865Y004570D01*
X015975Y004570D01*
X015975Y004790D01*
X015865Y004790D01*
X015828Y004753D01*
X021795Y003790D02*
X021795Y003570D01*
X021942Y003570D01*
X022016Y003570D02*
X022163Y003790D01*
X022237Y003790D02*
X022384Y003790D01*
X022310Y003790D02*
X022310Y003570D01*
X022163Y003570D02*
X022016Y003790D01*
X021942Y003790D02*
X021795Y003790D01*
X021795Y003680D02*
X021868Y003680D01*
X021905Y003430D02*
X021795Y003430D01*
X021795Y003210D01*
X021795Y003283D02*
X021905Y003283D01*
X021942Y003320D01*
X021942Y003393D01*
X021905Y003430D01*
X022016Y003393D02*
X022016Y003247D01*
X022053Y003210D01*
X022126Y003210D01*
X022163Y003247D01*
X022163Y003393D01*
X022126Y003430D01*
X022053Y003430D01*
X022016Y003393D01*
X022237Y003430D02*
X022237Y003210D01*
X022310Y003283D01*
X022384Y003210D01*
X022384Y003430D01*
X022458Y003430D02*
X022458Y003210D01*
X022605Y003210D01*
X022679Y003210D02*
X022679Y003430D01*
X022789Y003430D01*
X022826Y003393D01*
X022826Y003320D01*
X022789Y003283D01*
X022679Y003283D01*
X022752Y003283D02*
X022826Y003210D01*
X022605Y003430D02*
X022458Y003430D01*
X022458Y003320D02*
X022531Y003320D01*
X022458Y003570D02*
X022605Y003570D01*
X022679Y003570D02*
X022679Y003790D01*
X022789Y003790D01*
X022826Y003753D01*
X022826Y003680D01*
X022789Y003643D01*
X022679Y003643D01*
X022752Y003643D02*
X022826Y003570D01*
X022900Y003570D02*
X022900Y003790D01*
X023047Y003570D01*
X023047Y003790D01*
X023121Y003717D02*
X023194Y003790D01*
X023268Y003717D01*
X023268Y003570D01*
X023342Y003570D02*
X023489Y003570D01*
X023342Y003570D02*
X023342Y003790D01*
X023268Y003680D02*
X023121Y003680D01*
X023121Y003717D02*
X023121Y003570D01*
X022605Y003790D02*
X022458Y003790D01*
X022458Y003570D01*
X022458Y003680D02*
X022531Y003680D01*
X011133Y014523D02*
X011059Y014449D01*
X010986Y014413D01*
X010912Y014413D02*
X010765Y014633D01*
X010765Y014413D01*
X010691Y014486D02*
X010617Y014413D01*
X010617Y014633D01*
X010544Y014633D02*
X010691Y014633D01*
X010912Y014633D02*
X010912Y014413D01*
X011023Y014523D02*
X011133Y014523D01*
X011133Y014596D01*
X011096Y014633D01*
X011023Y014633D01*
X010986Y014596D01*
X010986Y014559D01*
X011023Y014523D01*
X010470Y014596D02*
X010433Y014633D01*
X010360Y014633D01*
X010323Y014596D01*
X010323Y014559D01*
X010360Y014523D01*
X010396Y014523D01*
X010360Y014523D02*
X010323Y014486D01*
X010323Y014449D01*
X010360Y014413D01*
X010433Y014413D01*
X010470Y014449D01*
X010249Y014413D02*
X010102Y014413D01*
X010102Y014449D01*
X010249Y014596D01*
X010249Y014633D01*
D14*
X009185Y015750D02*
X009185Y013250D01*
X013175Y013250D01*
X013175Y015760D01*
X009175Y015760D01*
X013320Y015910D02*
X013322Y015923D01*
X013327Y015934D01*
X013336Y015944D01*
X013346Y015951D01*
X013359Y015955D01*
X013371Y015955D01*
X013384Y015951D01*
X013394Y015944D01*
X013403Y015934D01*
X013408Y015923D01*
X013410Y015910D01*
X013408Y015897D01*
X013403Y015886D01*
X013394Y015876D01*
X013384Y015869D01*
X013371Y015865D01*
X013359Y015865D01*
X013346Y015869D01*
X013336Y015876D01*
X013327Y015886D01*
X013322Y015897D01*
X013320Y015910D01*
X012715Y008840D02*
X011655Y008840D01*
X011655Y007150D01*
X012715Y007150D01*
X012715Y008840D01*
X012895Y006910D02*
X012897Y006923D01*
X012902Y006936D01*
X012911Y006947D01*
X012922Y006954D01*
X012935Y006959D01*
X012948Y006960D01*
X012962Y006957D01*
X012974Y006951D01*
X012984Y006942D01*
X012991Y006930D01*
X012995Y006917D01*
X012995Y006903D01*
X012991Y006890D01*
X012984Y006878D01*
X012974Y006869D01*
X012962Y006863D01*
X012948Y006860D01*
X012935Y006861D01*
X012922Y006866D01*
X012911Y006873D01*
X012902Y006884D01*
X012897Y006897D01*
X012895Y006910D01*
X011835Y005890D02*
X016335Y005890D01*
X016335Y003410D01*
X011825Y003410D01*
X011825Y005890D01*
X016024Y005650D02*
X016026Y005665D01*
X016032Y005679D01*
X016041Y005692D01*
X016052Y005702D01*
X016066Y005708D01*
X016081Y005711D01*
X016096Y005710D01*
X016111Y005705D01*
X016124Y005697D01*
X016134Y005686D01*
X016142Y005672D01*
X016146Y005658D01*
X016146Y005642D01*
X016142Y005628D01*
X016134Y005614D01*
X016124Y005603D01*
X016111Y005595D01*
X016096Y005590D01*
X016081Y005589D01*
X016066Y005592D01*
X016052Y005598D01*
X016041Y005608D01*
X016032Y005621D01*
X016026Y005635D01*
X016024Y005650D01*
X023685Y005300D02*
X025685Y005300D01*
X025685Y007000D01*
X023685Y007000D01*
X023685Y005300D01*
X023685Y007000D02*
X023685Y009000D01*
X025685Y009000D01*
X025685Y010900D01*
X023685Y010900D01*
X023685Y009000D01*
X025685Y009000D02*
X025685Y007000D01*
X025685Y010900D02*
X025685Y012500D01*
X023685Y012500D01*
X023685Y010900D01*
X023685Y015600D02*
X025685Y015600D01*
X025685Y017100D01*
X023685Y017100D01*
X023685Y015600D01*
X023685Y017100D02*
X023685Y018700D01*
X025685Y018700D01*
X025685Y017100D01*
D15*
X026625Y016145D02*
X027045Y016145D01*
X026835Y015935D02*
X026835Y016355D01*
X026845Y017920D02*
X026845Y018341D01*
X027535Y012055D02*
X027535Y011635D01*
X027325Y011845D02*
X027745Y011845D01*
X027745Y010055D02*
X027850Y009950D01*
X027850Y009635D01*
X027219Y009635D01*
X027219Y009950D01*
X027325Y010055D01*
X027430Y010055D01*
X027535Y009950D01*
X027535Y009635D01*
X027535Y009950D02*
X027640Y010055D01*
X027745Y010055D01*
X027745Y008155D02*
X027535Y008155D01*
X027535Y007945D01*
X027325Y007735D02*
X027745Y007735D01*
X027850Y007840D01*
X027850Y008050D01*
X027745Y008155D01*
X027325Y008155D02*
X027219Y008050D01*
X027219Y007840D01*
X027325Y007735D01*
X027325Y006155D02*
X027535Y006155D01*
X027640Y006050D01*
X027640Y005735D01*
X027850Y005735D02*
X027219Y005735D01*
X027219Y006050D01*
X027325Y006155D01*
X027640Y005945D02*
X027850Y006155D01*
D16*
X001965Y004296D02*
X001605Y004056D01*
X001605Y004296D02*
X001965Y004056D01*
X001965Y004424D02*
X001605Y004424D01*
X001965Y004424D02*
X001965Y004664D01*
X001965Y004792D02*
X001605Y004792D01*
X001605Y004972D01*
X001665Y005032D01*
X001785Y005032D01*
X001845Y004972D01*
X001845Y004792D01*
X001845Y004912D02*
X001965Y005032D01*
X001905Y005529D02*
X001965Y005589D01*
X001965Y005709D01*
X001905Y005769D01*
X001845Y005769D01*
X001785Y005709D01*
X001785Y005649D01*
X001785Y005709D02*
X001725Y005769D01*
X001665Y005769D01*
X001605Y005709D01*
X001605Y005589D01*
X001665Y005529D01*
X001965Y005897D02*
X001605Y006137D01*
X001605Y006266D02*
X001785Y006266D01*
X001725Y006386D01*
X001725Y006446D01*
X001785Y006506D01*
X001905Y006506D01*
X001965Y006446D01*
X001965Y006326D01*
X001905Y006266D01*
X001605Y006266D02*
X001605Y006506D01*
X001605Y007002D02*
X001605Y007182D01*
X001665Y007242D01*
X001785Y007242D01*
X001845Y007182D01*
X001845Y007002D01*
X001965Y007002D02*
X001605Y007002D01*
X001605Y007370D02*
X001605Y007491D01*
X001605Y007431D02*
X001965Y007431D01*
X001965Y007491D02*
X001965Y007370D01*
X001965Y007616D02*
X001605Y007616D01*
X001965Y007856D01*
X001605Y007856D01*
X002605Y006629D02*
X002605Y006388D01*
X002965Y006388D01*
X002965Y006629D01*
X002785Y006508D02*
X002785Y006388D01*
X002965Y006260D02*
X002965Y006020D01*
X002605Y006020D01*
X002725Y005892D02*
X002965Y005892D01*
X002785Y005892D02*
X002785Y005652D01*
X002725Y005652D02*
X002605Y005772D01*
X002725Y005892D01*
X002725Y005652D02*
X002965Y005652D01*
X002965Y005524D02*
X002605Y005524D01*
X002725Y005403D01*
X002605Y005283D01*
X002965Y005283D01*
X001965Y012956D02*
X001605Y013196D01*
X001605Y013324D02*
X001965Y013324D01*
X001965Y013564D01*
X001965Y013692D02*
X001605Y013692D01*
X001605Y013872D01*
X001665Y013932D01*
X001785Y013932D01*
X001845Y013872D01*
X001845Y013692D01*
X001845Y013812D02*
X001965Y013932D01*
X001905Y014429D02*
X001965Y014489D01*
X001965Y014609D01*
X001905Y014669D01*
X001845Y014669D01*
X001785Y014609D01*
X001785Y014549D01*
X001785Y014609D02*
X001725Y014669D01*
X001665Y014669D01*
X001605Y014609D01*
X001605Y014489D01*
X001665Y014429D01*
X001965Y014797D02*
X001605Y015037D01*
X001605Y015166D02*
X001785Y015166D01*
X001725Y015286D01*
X001725Y015346D01*
X001785Y015406D01*
X001905Y015406D01*
X001965Y015346D01*
X001965Y015226D01*
X001905Y015166D01*
X001605Y015166D02*
X001605Y015406D01*
X001605Y015902D02*
X001605Y016082D01*
X001665Y016142D01*
X001785Y016142D01*
X001845Y016082D01*
X001845Y015902D01*
X001965Y015902D02*
X001605Y015902D01*
X001605Y016270D02*
X001605Y016391D01*
X001605Y016331D02*
X001965Y016331D01*
X001965Y016391D02*
X001965Y016270D01*
X001965Y016516D02*
X001605Y016516D01*
X001965Y016756D01*
X001605Y016756D01*
X002605Y015897D02*
X002605Y015657D01*
X002965Y015657D01*
X002965Y015897D01*
X002785Y015777D02*
X002785Y015657D01*
X002965Y015529D02*
X002965Y015288D01*
X002605Y015288D01*
X002725Y015160D02*
X002965Y015160D01*
X002785Y015160D02*
X002785Y014920D01*
X002725Y014920D02*
X002605Y015040D01*
X002725Y015160D01*
X002725Y014920D02*
X002965Y014920D01*
X002965Y014792D02*
X002605Y014792D01*
X002725Y014672D01*
X002605Y014552D01*
X002965Y014552D01*
X002965Y014424D02*
X002965Y014183D01*
X002605Y014183D01*
X002605Y014424D01*
X002785Y014303D02*
X002785Y014183D01*
X002605Y014055D02*
X002605Y013815D01*
X002965Y013815D01*
X002785Y013815D02*
X002785Y013935D01*
X001965Y013196D02*
X001605Y012956D01*
X012405Y017020D02*
X012538Y017020D01*
X012472Y017020D02*
X012472Y016820D01*
X012626Y016820D02*
X012759Y016820D01*
X012847Y016820D02*
X012847Y017020D01*
X012947Y017020D01*
X012980Y016987D01*
X012980Y016920D01*
X012947Y016887D01*
X012847Y016887D01*
X012914Y016887D02*
X012980Y016820D01*
X013068Y016820D02*
X013101Y016820D01*
X013101Y016853D01*
X013068Y016853D01*
X013068Y016820D01*
X012759Y017020D02*
X012626Y017020D01*
X012626Y016820D01*
X012626Y016920D02*
X012693Y016920D01*
X013465Y016895D02*
X013498Y016862D01*
X013632Y016862D01*
X013498Y016995D01*
X013632Y016995D01*
X013665Y016962D01*
X013665Y016895D01*
X013632Y016862D01*
X013665Y016774D02*
X013465Y016641D01*
X013498Y016553D02*
X013565Y016553D01*
X013598Y016520D01*
X013598Y016420D01*
X013598Y016487D02*
X013665Y016553D01*
X013665Y016641D02*
X013465Y016774D01*
X013465Y016895D02*
X013465Y016962D01*
X013498Y016995D01*
X013498Y016553D02*
X013465Y016520D01*
X013465Y016420D01*
X013665Y016420D01*
X014465Y016462D02*
X014532Y016529D01*
X014465Y016595D01*
X014665Y016595D01*
X014698Y016683D02*
X014698Y016816D01*
X014665Y016904D02*
X014465Y016904D01*
X014465Y017004D01*
X014498Y017037D01*
X014565Y017037D01*
X014598Y017004D01*
X014598Y016904D01*
X014598Y016971D02*
X014665Y017037D01*
X014665Y016462D02*
X014465Y016462D01*
X014465Y016374D02*
X014665Y016374D01*
X014598Y016308D01*
X014665Y016241D01*
X014465Y016241D01*
X014498Y016153D02*
X014565Y016153D01*
X014598Y016120D01*
X014598Y016020D01*
X014665Y016020D02*
X014465Y016020D01*
X014465Y016120D01*
X014498Y016153D01*
X015465Y016120D02*
X015465Y016020D01*
X015665Y016020D01*
X015598Y016020D02*
X015598Y016120D01*
X015565Y016153D01*
X015498Y016153D01*
X015465Y016120D01*
X015465Y016241D02*
X015665Y016241D01*
X015598Y016308D01*
X015665Y016374D01*
X015465Y016374D01*
X015465Y016462D02*
X015532Y016529D01*
X015465Y016595D01*
X015665Y016595D01*
X015698Y016683D02*
X015698Y016816D01*
X015632Y016904D02*
X015498Y016904D01*
X015465Y016937D01*
X015465Y017004D01*
X015498Y017037D01*
X015565Y017037D02*
X015565Y016971D01*
X015565Y017037D02*
X015632Y017037D01*
X015665Y017004D01*
X015665Y016937D01*
X015632Y016904D01*
X015665Y016462D02*
X015465Y016462D01*
X016465Y016462D02*
X016532Y016529D01*
X016465Y016595D01*
X016665Y016595D01*
X016698Y016683D02*
X016698Y016816D01*
X016665Y016904D02*
X016665Y017004D01*
X016632Y017037D01*
X016598Y017037D01*
X016565Y017004D01*
X016565Y016904D01*
X016665Y016904D02*
X016465Y016904D01*
X016465Y017004D01*
X016498Y017037D01*
X016532Y017037D01*
X016565Y017004D01*
X016665Y016462D02*
X016465Y016462D01*
X016465Y016374D02*
X016665Y016374D01*
X016598Y016308D01*
X016665Y016241D01*
X016465Y016241D01*
X016498Y016153D02*
X016565Y016153D01*
X016598Y016120D01*
X016598Y016020D01*
X016665Y016020D02*
X016465Y016020D01*
X016465Y016120D01*
X016498Y016153D01*
D17*
X017666Y016255D02*
X017666Y016906D01*
X017449Y016906D02*
X017883Y016906D01*
X018149Y016580D02*
X018257Y016689D01*
X018474Y016689D01*
X018583Y016580D01*
X018583Y016472D01*
X018149Y016472D01*
X018149Y016580D02*
X018149Y016363D01*
X018257Y016255D01*
X018474Y016255D01*
X018849Y016255D02*
X018849Y016689D01*
X019065Y016689D02*
X018849Y016472D01*
X019065Y016689D02*
X019174Y016689D01*
X019540Y016689D02*
X019757Y016689D01*
X019865Y016580D01*
X019865Y016255D01*
X019540Y016255D01*
X019432Y016363D01*
X019540Y016472D01*
X019865Y016472D01*
X020132Y016255D02*
X020457Y016255D01*
X020565Y016363D01*
X020565Y016797D01*
X020457Y016906D01*
X020132Y016906D01*
X020132Y016255D01*
X020831Y016255D02*
X020831Y016906D01*
X021048Y016689D01*
X021265Y016906D01*
X021265Y016255D01*
X021531Y016255D02*
X021965Y016906D01*
X021531Y016906D02*
X021965Y016255D01*
X020624Y015657D02*
X020624Y015223D01*
X020515Y015115D01*
X020190Y015115D01*
X020190Y015766D01*
X020515Y015766D01*
X020624Y015657D01*
X019924Y015766D02*
X019490Y015766D01*
X019490Y015115D01*
X019924Y015115D01*
X019707Y015440D02*
X019490Y015440D01*
X019224Y015115D02*
X018790Y015115D01*
X018790Y015766D01*
X018774Y014626D02*
X018557Y014626D01*
X018665Y014626D02*
X018665Y013975D01*
X018557Y013975D02*
X018774Y013975D01*
X019024Y013975D02*
X019024Y014626D01*
X019240Y014409D01*
X019457Y014626D01*
X019457Y013975D01*
X019723Y013975D02*
X019723Y014626D01*
X019940Y014409D01*
X020157Y014626D01*
X020157Y013975D01*
X020423Y013975D02*
X020857Y013975D01*
X021123Y013975D02*
X021123Y014626D01*
X021448Y014626D01*
X021557Y014517D01*
X021557Y014300D01*
X021448Y014192D01*
X021123Y014192D01*
X021340Y014192D02*
X021557Y013975D01*
X020857Y014626D02*
X020423Y014626D01*
X020423Y013975D01*
X020423Y014300D02*
X020640Y014300D01*
X018291Y014083D02*
X018183Y013975D01*
X017857Y013975D01*
X017857Y014626D01*
X018183Y014626D01*
X018291Y014517D01*
X018291Y014083D01*
M02*
