%
M48
M72
T01C0.0236
T02C0.0315
T03C0.0400
T04C0.0472
T05C0.0520
T06C0.0591
T07C0.0630
T08C0.0984
T09C0.1250
T10C0.1575
%
T01
X2685Y3200
X2685Y8800
X6185Y9300
X6185Y11800
X7985Y18600
X9685Y14500
X10685Y15264
X12825Y15284
X14585Y12600
X15585Y12600
X16585Y12600
X17285Y11100
X17885Y11100
X17885Y10500
X17285Y10500
X17865Y9740
X17885Y8700
X17285Y8700
X17285Y8100
X17885Y8100
X17885Y7240
X17885Y6200
X17285Y6200
X17285Y5600
X17885Y5600
X17885Y4750
X17885Y3900
X17285Y3900
X12585Y4600
X12085Y4600
X9185Y5000
X10685Y9600
X9685Y10600
X13685Y10500
X22685Y10000
X23185Y10000
X23685Y10000
X23685Y8000
X23185Y8000
X22685Y8000
X22685Y6000
X23185Y6000
X23685Y6000
X25585Y12500
X23685Y12500
X23375Y15650
X23385Y16500
X23085Y17700
X22585Y17700
X22585Y18200
X22585Y18700
X23085Y18700
X23085Y18200
X26085Y17800
X26085Y18700
X25585Y15660
T02
X8585Y20500
X9585Y20500
X10585Y20500
X11585Y20500
X12585Y20500
X13585Y20500
X14585Y20500
X15585Y20500
X16585Y20500
X17585Y20500
X19185Y20500
X20185Y20500
X21185Y20500
X22185Y20500
X23185Y20500
X24185Y20500
X25185Y20500
X26185Y20500
X26185Y1500
X25185Y1500
X24185Y1500
X23185Y1500
X22185Y1500
X21185Y1500
X19185Y1500
X18185Y1500
X17185Y1500
X16185Y1500
X15185Y1500
X14185Y1500
X13185Y1500
X12185Y1500
X12585Y5394
X13585Y5394
X14585Y5394
X15585Y5394
T03
X12585Y17600
X13585Y17600
X13585Y18600
X12585Y18600
X14585Y18600
X14585Y17600
X15585Y17600
X16585Y17600
X16585Y18600
X15585Y18600
X21185Y3500
X20185Y3500
X11185Y1500
X10185Y1500
X9185Y1500
T04
X6185Y4500
X6185Y6000
X6185Y6000
X6185Y7500
X4685Y7500
X8185Y6000
X8185Y6000
X3935Y11552
X6435Y17550
X7935Y14800
X7935Y14800
X6435Y14800
T05
X24665Y16170
X24685Y6050
X24685Y8010
X24685Y9990
X24685Y11950
X24665Y18140
T06
X11995Y17020
T07
X2685Y4500
X2685Y4500
X4685Y7500
X8185Y7500
X8185Y8748
X8185Y4500
X8185Y3252
X6185Y13300
X7935Y13300
X7935Y16300
X6435Y16300
X4685Y16300
X4685Y16300
X2685Y13300
X2685Y13300
T08
X11995Y14480
X24275Y15000
T09
X7185Y20500
X27185Y14500
X27185Y3500
X6685Y1500
T10
X3862Y20102
M30
